<?xml version="1.0" encoding="utf-8"?>
<!-- Generator: Adobe Illustrator 16.0.0, SVG Export Plug-In . SVG Version: 6.00 Build 0)  -->
<!DOCTYPE svg PUBLIC "-//W3C//DTD SVG 1.1//EN" "http://www.w3.org/Graphics/SVG/1.1/DTD/svg11.dtd">
<svg version="1.1" id="fbbf0112-9f0c-4059-91ae-024eb0aa32cc"
	 xmlns="http://www.w3.org/2000/svg" xmlns:xlink="http://www.w3.org/1999/xlink" x="0px" y="0px" width="1046px"
	 height="729.871px" viewBox="0 0 1046 729.871" enable-background="new 0 0 1046 729.871" xml:space="preserve">
<title>directions</title>
<path opacity="0.1" fill="#6C63FF" enable-background="new    " d="M417.149,93.3C337.044,16.95,215.889,3.307,120.81,59.93
	C215.79,93.93,320.59,95.18,417.149,93.3z"/>
<path opacity="0.1" fill="#6C63FF" enable-background="new    " d="M967.64,645.48L863.92,465.83
	c-0.904-1.582-2.921-2.131-4.503-1.227c-0.511,0.292-0.935,0.716-1.227,1.227L754.47,645.48c-0.938,1.563-0.434,3.59,1.129,4.528
	c0.522,0.314,1.121,0.478,1.731,0.472h30.94c1.825,0.006,3.304,1.484,3.31,3.311v38.34c0,1.824,1.476,3.305,3.3,3.31h40.37
	c1.828,0,3.31-1.481,3.31-3.31V673.6c0-1.823,1.478-3.3,3.301-3.3h38.38c1.823,0,3.304,1.476,3.31,3.3v18.53
	c0,1.828,1.482,3.31,3.311,3.31h40.359c1.828,0,3.311-1.481,3.311-3.31V653.75c0-1.828,1.481-3.31,3.31-3.31h30.94
	c1.828-0.005,3.306-1.491,3.301-3.319C968.079,646.545,967.927,645.979,967.64,645.48z M823,665.36c-0.615,0.633-1.458,0.993-2.34,1
	h-14.53c-1.828-0.002-3.309-1.485-3.306-3.313c0.002-1.825,1.481-3.305,3.306-3.307h14.561c1.828,0.001,3.309,1.483,3.309,3.311
	c0,0.878-0.349,1.719-0.969,2.34L823,665.36z M918.28,665.36c-0.615,0.633-1.458,0.993-2.34,1H901.42
	c-1.828-0.002-3.308-1.485-3.306-3.313c0.002-1.825,1.48-3.305,3.306-3.307H916c1.828,0.001,3.31,1.483,3.31,3.311
	c-0.001,0.878-0.35,1.719-0.97,2.34L918.28,665.36z"/>
<path opacity="0.1" fill="#6C63FF" enable-background="new    " d="M326.55,647.06L222.83,467.41
	c-0.916-1.582-2.94-2.123-4.522-1.207c-0.501,0.29-0.918,0.706-1.208,1.207l-89.59,155.17c11.193,14.105,23.75,27.072,37.49,38.711
	h14.6c1.828,0.002,3.308,1.485,3.306,3.313c-0.002,1.825-1.481,3.304-3.306,3.306h-6.16c7.545,5.674,15.576,10.67,24,14.93v-7.649
	c0-1.828,1.482-3.31,3.31-3.31h38.38c1.824,0.005,3.3,1.485,3.3,3.31v18.521c-0.001,0.48,0.104,0.955,0.311,1.39
	c0.541,1.169,1.711,1.918,3,1.92h40.37c1.04,0.004,2.018-0.491,2.63-1.33c0.444-0.571,0.681-1.276,0.67-2V655.34
	c0-1.828,1.481-3.31,3.31-3.31h30.94c1.828,0.015,3.321-1.455,3.336-3.283C327.001,648.154,326.847,647.572,326.55,647.06z
	 M258,662.26c0.615-0.633,1.458-0.993,2.34-1h14.56c1.828,0.002,3.308,1.485,3.306,3.313c-0.002,1.825-1.481,3.304-3.306,3.307
	h-14.57c-1.828-0.001-3.31-1.483-3.309-3.312c0-0.877,0.349-1.719,0.969-2.339L258,662.26z M192.85,595.78
	c-1.828,0-3.31-1.481-3.31-3.31V567.33c0-1.828,1.482-3.31,3.31-3.31h54.25c1.824,0.005,3.3,1.485,3.3,3.31v25.141
	c0,1.824-1.476,3.305-3.3,3.31H192.85z"/>
<path opacity="0.1" fill="#6C63FF" enable-background="new    " d="M736.53,324.34H608.18v-27.76c0-3.667-2.973-6.64-6.64-6.64l0,0
	h-37.689v-29.57c0-2.309-1.872-4.18-4.181-4.18h-48.55c-2.309,0-4.18,1.871-4.18,4.18v29.561H462.63c-3.667,0-6.64,2.973-6.64,6.64
	l0,0v27.76h-122.39c-0.742,0.006-1.341,0.608-1.341,1.351v368.53c0,0.741,0.599,1.344,1.341,1.35h81.34
	c0.745,0,1.35-0.604,1.35-1.35v-49.58c0.006-0.744,0.606-1.345,1.35-1.351H452c0.743,0.006,1.345,0.606,1.351,1.351v49.58
	c0,0.741,0.598,1.344,1.34,1.35h160.75c0.743-0.006,1.344-0.607,1.35-1.35v-49.58c0-0.742,0.598-1.345,1.34-1.351h34.36
	c0.745,0,1.35,0.604,1.35,1.351v49.58c0.006,0.742,0.606,1.344,1.351,1.35h81.34c0.743-0.006,1.344-0.607,1.35-1.35V325.69
	C737.874,324.947,737.273,324.345,736.53,324.34z M401.729,626.06c0,0.74-0.6,1.34-1.34,1.34l0,0h-50.24
	c-0.739,0.006-1.344-0.59-1.35-1.33c0-0.003,0-0.007,0-0.01v-17.13c0-0.746,0.604-1.351,1.35-1.351h50.24
	c0.742,0.006,1.34,0.608,1.34,1.351V626.06z M401.729,581.72c0.006,0.74-0.59,1.344-1.33,1.35c-0.003,0-0.006,0-0.01,0h-50.24
	c-0.739,0.006-1.344-0.59-1.35-1.33c0-0.006,0-0.014,0-0.02v-17.15c-0.006-0.74,0.59-1.344,1.33-1.35c0.007,0,0.014,0,0.02,0h50.24
	c0.74,0,1.34,0.6,1.34,1.34c0,0.003,0,0.007,0,0.01V581.72z M401.729,537.39c0,0.741-0.598,1.344-1.34,1.35h-50.24
	c-0.745,0-1.35-0.604-1.35-1.35v-17.16c0-0.746,0.604-1.35,1.35-1.35h50.24c0.742,0.005,1.34,0.607,1.34,1.35V537.39z
	 M401.729,493.051c0.006,0.74-0.59,1.344-1.33,1.35c-0.003,0-0.006,0-0.01,0h-50.24c-0.739,0.006-1.344-0.59-1.35-1.33
	c0-0.007,0-0.014,0-0.02v-17.12c-0.006-0.74,0.59-1.345,1.33-1.351c0.007,0,0.014,0,0.02,0h50.24c0.74,0,1.34,0.601,1.34,1.34
	c0,0.004,0,0.007,0,0.011V493.051z M401.729,448.72c0,0.741-0.598,1.344-1.34,1.35h-50.24c-0.745,0-1.35-0.604-1.35-1.35v-17.16
	c0-0.74,0.6-1.34,1.34-1.34c0.004,0,0.007,0,0.01,0h50.24c0.74,0,1.34,0.6,1.34,1.34l0,0V448.72z M401.729,404.39
	c0,0.739-0.6,1.34-1.34,1.34h-50.24c-0.739,0.005-1.344-0.59-1.35-1.33c0-0.004,0-0.007,0-0.01v-17.16
	c0-0.746,0.604-1.351,1.35-1.351l0,0h50.24c0.742,0.006,1.34,0.608,1.34,1.351V404.39z M401.729,360.05
	c0.006,0.74-0.59,1.345-1.329,1.351c-0.004,0-0.007,0-0.011,0h-50.24c-0.739,0.005-1.344-0.59-1.35-1.33c0-0.007,0-0.014,0-0.021
	V342.93c-0.006-0.74,0.59-1.345,1.33-1.351c0.007,0,0.014,0,0.02,0h50.24c0.74,0,1.34,0.601,1.34,1.34c0,0.004,0,0.007,0,0.011
	V360.05z M520.84,626.051c0,0.739-0.6,1.34-1.34,1.34c-0.003,0-0.007,0-0.01,0h-50.24c-0.741,0-1.345-0.599-1.351-1.34v-17.12
	c0.006-0.743,0.607-1.345,1.351-1.351h50.24c0.745,0,1.35,0.604,1.35,1.351V626.051z M520.84,581.71
	c0.006,0.74-0.59,1.345-1.33,1.351c-0.007,0-0.013,0-0.02,0h-50.24c-0.745,0-1.351-0.604-1.351-1.351v-17.14
	c0-0.745,0.605-1.35,1.351-1.35h50.24c0.739-0.006,1.345,0.59,1.35,1.33c0,0.006,0,0.013,0,0.02V581.71z M520.84,537.381
	c0,0.745-0.604,1.35-1.35,1.35h-50.24c-0.743-0.006-1.345-0.607-1.351-1.35v-17.15c0.006-0.743,0.607-1.345,1.351-1.35h50.24
	c0.745,0,1.35,0.604,1.35,1.35V537.381z M520.84,493.04c0.006,0.74-0.59,1.345-1.33,1.351c-0.007,0-0.013,0-0.02,0h-50.24
	c-0.745,0-1.351-0.605-1.351-1.351V475.93c0-0.746,0.605-1.351,1.351-1.351h50.24c0.739-0.005,1.345,0.59,1.35,1.33
	c0,0.007,0,0.014,0,0.021V493.04z M520.84,448.71c0,0.746-0.604,1.351-1.35,1.351h-50.24c-0.743-0.006-1.345-0.607-1.351-1.351
	V431.56c0.006-0.742,0.609-1.34,1.351-1.34h50.24c0.739-0.006,1.345,0.59,1.35,1.33c0,0.003,0,0.006,0,0.01V448.71z M520.84,404.38
	c0,0.74-0.6,1.34-1.34,1.34c-0.003,0-0.007,0-0.01,0h-50.24c-0.741,0-1.345-0.598-1.351-1.34V387.23
	c0.006-0.743,0.607-1.345,1.351-1.351h50.24c0.745,0,1.35,0.604,1.35,1.351V404.38z M520.84,360.04
	c0.006,0.74-0.59,1.345-1.329,1.35c-0.008,0-0.014,0-0.021,0h-50.24c-0.745,0-1.351-0.604-1.351-1.35V342.93
	c0-0.746,0.605-1.351,1.351-1.351h50.24c0.739-0.005,1.345,0.59,1.35,1.33c0,0.007,0,0.014,0,0.021V360.04z M602.229,626.04
	c0,0.74-0.6,1.34-1.34,1.341c-0.003,0-0.006-0.001-0.01-0.001h-50.24c-0.741,0-1.344-0.599-1.35-1.34V608.93
	c0.006-0.743,0.606-1.345,1.35-1.351h50.24c0.746,0,1.35,0.604,1.35,1.351V626.04z M602.229,581.7c0.006,0.74-0.59,1.345-1.329,1.35
	c-0.007,0.001-0.014,0.001-0.021,0h-50.24c-0.745,0-1.35-0.604-1.35-1.35v-17.13c0-0.745,0.604-1.35,1.35-1.35h50.24
	c0.74-0.006,1.345,0.59,1.35,1.33c0,0.006,0,0.013,0,0.02V581.7z M602.229,537.37c0,0.745-0.604,1.351-1.35,1.351h-50.24
	c-0.743-0.006-1.344-0.607-1.35-1.351v-17.14c0.006-0.743,0.606-1.345,1.35-1.35h50.24c0.746,0,1.35,0.604,1.35,1.35V537.37z
	 M602.229,493.03c0.006,0.739-0.59,1.345-1.329,1.35c-0.007,0-0.014,0-0.021,0h-50.24c-0.745,0-1.35-0.604-1.35-1.35v-17.1
	c0-0.746,0.604-1.351,1.35-1.351h50.24c0.74-0.005,1.345,0.59,1.35,1.33c0,0.007,0,0.014,0,0.021V493.03z M602.229,448.7
	c0,0.745-0.604,1.35-1.35,1.35h-50.24c-0.743-0.005-1.344-0.606-1.35-1.35v-17.14c0.006-0.742,0.608-1.34,1.35-1.34h50.24
	c0.74-0.006,1.345,0.59,1.35,1.33c0,0.003,0,0.006,0,0.01V448.7z M602.229,404.37c0,0.74-0.6,1.34-1.34,1.34
	c-0.003,0-0.006,0-0.01,0h-50.24c-0.741,0-1.344-0.599-1.35-1.34v-17.14c0.006-0.743,0.606-1.345,1.35-1.351h50.24
	c0.746,0,1.35,0.604,1.35,1.351V404.37z M602.229,360.03c0.006,0.739-0.59,1.344-1.329,1.35c-0.007,0-0.014,0-0.021,0h-50.24
	c-0.745,0-1.35-0.604-1.35-1.35v-17.1c0-0.746,0.604-1.351,1.35-1.351h50.24c0.74-0.005,1.345,0.59,1.35,1.33
	c0,0.007,0,0.014,0,0.021V360.03z M721.34,626.03c-0.005,0.741-0.608,1.34-1.35,1.34h-50.24c-0.74,0.005-1.345-0.59-1.35-1.33
	c-0.001-0.003-0.001-0.007-0.001-0.01v-17.1c0-0.746,0.605-1.351,1.351-1.351H720c0.743,0.006,1.345,0.607,1.351,1.351
	L721.34,626.03z M721.34,581.689c0,0.746-0.604,1.351-1.35,1.351h-50.24c-0.74,0.005-1.345-0.59-1.351-1.33c0-0.007,0-0.013,0-0.021
	V564.57c-0.005-0.74,0.591-1.344,1.33-1.35c0.007,0,0.014,0,0.021,0H720c0.745,0,1.351,0.604,1.351,1.35L721.34,581.689z
	 M721.34,537.359c-0.005,0.744-0.606,1.346-1.35,1.351h-50.24c-0.745,0-1.351-0.604-1.351-1.351V520.23
	c0-0.746,0.605-1.35,1.351-1.35H720c0.743,0.005,1.345,0.606,1.351,1.35L721.34,537.359z M721.34,493.019
	c0,0.746-0.604,1.351-1.35,1.351h-50.24c-0.74,0.005-1.345-0.59-1.351-1.33c0-0.007,0-0.014,0-0.021V475.93
	c-0.005-0.74,0.591-1.345,1.33-1.351c0.007,0,0.014,0,0.021,0H720c0.745,0,1.351,0.604,1.351,1.351L721.34,493.019z M721.34,448.689
	c-0.005,0.744-0.606,1.345-1.35,1.351h-50.24c-0.745,0-1.351-0.604-1.351-1.351V431.56c0-0.74,0.601-1.34,1.341-1.34
	c0.003,0,0.007,0,0.01,0H720c0.741,0,1.345,0.598,1.351,1.34L721.34,448.689z M721.34,404.359c0.012,0.746-0.583,1.359-1.329,1.371
	c-0.004,0-0.008,0-0.011,0h-50.25c-0.74,0.005-1.345-0.59-1.35-1.33c-0.001-0.004-0.001-0.007-0.001-0.01v-17.16
	c0-0.746,0.605-1.351,1.351-1.351H720c0.743,0.006,1.345,0.607,1.351,1.351L721.34,404.359z M721.34,360.019
	c0,0.746-0.604,1.351-1.35,1.351h-50.24c-0.74,0.005-1.345-0.59-1.351-1.33c0-0.007,0-0.014,0-0.021V342.93
	c-0.005-0.74,0.591-1.345,1.33-1.351c0.007,0,0.014,0,0.021,0H720c0.745,0,1.351,0.604,1.351,1.351L721.34,360.019z"/>
<path opacity="0.1" fill="#6C63FF" enable-background="new    " d="M371,224.46c-5.646-1.075-11.485-0.441-16.771,1.82
	c-6.441,2.871-13.803,2.853-20.229-0.05c-7.58-3.324-16.237-3.152-23.68,0.47c-2.104,1.108-4.443,1.691-6.82,1.7
	c-9.6,0-17.59-9.67-19.25-22.43c1.918-1.398,3.548-3.153,4.8-5.171c5.63-9.069,14.35-14.899,24.141-14.899
	c9.789,0,18.399,5.76,24,14.729c3.415,5.513,9.466,8.836,15.949,8.761h0.25C361.11,209.39,367.729,215.52,371,224.46z"/>
<path opacity="0.1" fill="#6C63FF" enable-background="new    " d="M400.2,184.41l-15.521,9.84l9.421-17.13
	c-2.67-2.131-5.975-3.31-9.391-3.35h-0.25c-1.078,0.016-2.156-0.064-3.22-0.24l-5.24,3.34l2.26-4.1c-3.729-1.304-6.949-3.754-9.2-7
	l-9.42,6l5.931-10.84c-5.511-6.61-12.931-10.66-21.091-10.66c-9.789,0-18.51,5.819-24.14,14.89c-3.395,5.541-9.505,8.829-16,8.61
	h-0.53c-10.81,0-19.569,12.25-19.569,27.37s8.76,27.37,19.569,27.37c2.379-0.007,4.721-0.594,6.82-1.711
	c7.444-3.618,16.102-3.786,23.68-0.46c6.409,2.86,13.731,2.86,20.141,0c7.52-3.27,16.091-3.105,23.479,0.45
	c2.081,1.089,4.393,1.662,6.74,1.67c10.81,0,19.57-12.26,19.57-27.37C404.309,195.28,402.92,189.545,400.2,184.41z"/>
<path opacity="0.1" fill="#6C63FF" enable-background="new    " d="M832,406.93c-3.952-0.749-8.039-0.307-11.74,1.27
	c-4.485,2.006-9.614,2.006-14.1,0c-5.308-2.326-11.369-2.206-16.58,0.33c-1.471,0.776-3.107,1.185-4.771,1.19
	c-6.72,0-12.31-6.771-13.47-15.7c1.34-0.982,2.48-2.211,3.36-3.62c3.939-6.351,10-10.43,16.89-10.43s12.89,4,16.83,10.31
	c2.388,3.858,6.622,6.185,11.16,6.13h0.18C825.06,396.39,829.69,400.68,832,406.93z"/>
<path opacity="0.1" fill="#6C63FF" enable-background="new    " d="M852.42,378.93l-10.86,6.89l6.59-12
	c-1.868-1.489-4.18-2.313-6.569-2.34h-0.17c-0.754,0.009-1.507-0.048-2.25-0.17l-3.69,2.33l1.58-2.86
	c-2.605-0.916-4.857-2.626-6.439-4.89L824,370.05l4.16-7.569c-3.851-4.63-9-7.47-14.761-7.47c-6.85,0-13,4.079-16.899,10.43
	c-2.376,3.861-6.64,6.151-11.17,6H785c-7.56,0-13.7,8.57-13.7,19.149c0,10.58,6.141,19.16,13.7,19.16
	c1.663-0.005,3.3-0.413,4.771-1.189c5.211-2.538,11.274-2.655,16.58-0.32c4.488,1.993,9.611,1.993,14.1,0
	c5.263-2.285,11.26-2.168,16.43,0.32c1.459,0.756,3.077,1.153,4.721,1.16c7.569,0,13.699-8.57,13.699-19.16
	C855.323,386.504,854.333,382.507,852.42,378.93z"/>
<path opacity="0.1" fill="#6C63FF" enable-background="new    " d="M238.62,342.93c3.953-0.748,8.039-0.307,11.74,1.27
	c4.482,2.007,9.608,2.007,14.09,0c5.308-2.326,11.369-2.206,16.58,0.33c1.471,0.775,3.107,1.184,4.77,1.19
	c6.72,0,12.32-6.771,13.48-15.7c-1.343-0.979-2.483-2.209-3.36-3.62c-3.92-6.37-10.05-10.47-16.92-10.47s-12.88,4-16.82,10.31
	c-2.395,3.863-6.634,6.195-11.18,6.15h-0.17C245.51,332.39,240.87,336.68,238.62,342.93z"/>
<path opacity="0.1" fill="#6C63FF" enable-background="new    " d="M218.14,314.93L229,321.79l-6.6-12
	c1.87-1.487,4.181-2.311,6.57-2.34h0.18c0.753,0.009,1.506-0.048,2.25-0.17l3.68,2.33l-1.58-2.86c2.608-0.915,4.865-2.625,6.45-4.89
	l6.59,4.18l-4.17-7.569c3.86-4.631,9.05-7.471,14.77-7.471c6.851,0,13,4.08,16.9,10.431c2.374,3.862,6.639,6.153,11.17,6h0.36
	c7.569,0,13.7,8.569,13.7,19.149s-6.131,19.16-13.7,19.16c-1.663-0.008-3.299-0.416-4.771-1.19
	c-5.211-2.538-11.274-2.655-16.58-0.319c-4.485,1.992-9.604,1.992-14.09,0c-5.267-2.286-11.267-2.169-16.44,0.319
	c-1.458,0.758-3.077,1.155-4.72,1.16c-7.56,0-13.7-8.569-13.7-19.16C215.245,322.498,216.231,318.505,218.14,314.93z"/>
<path fill="#3F3D56" d="M218.68,700.06c13.54,8.6,33.05-0.1,46.68,8.37c3.52,2.18,6.36,5.39,10,7.37c4.37,2.39,9.51,2.819,14.48,3
	c41.62,1.609,83.94-10,124.521-0.62c11.35,2.62,22.449,6.88,34.08,7.5c20.09,1.09,39.34-8.71,59.449-9.25
	c30.5-0.82,60.471,19.59,89.9,11.54c9.68-2.65,18.561-8.301,28.55-9.25c11.13-1,21.83,3.85,32.65,6.68c38.37,10,78.33-6.2,118-7.41
	c25.87-0.79,51.489,4.85,77.34,6.15c18.38,0.92,36.8-0.37,55.16-1.65c7-0.49,14.33-1.09,20.19-4.93
	c5.859-3.84,9.459-12.09,5.84-18.09L218.68,700.06z"/>
<path opacity="0.1" enable-background="new    " d="M218.68,700.06c13.54,8.6,33.05-0.1,46.68,8.37c3.52,2.18,6.36,5.39,10,7.37
	c4.37,2.39,9.51,2.819,14.48,3c41.62,1.609,83.94-10,124.521-0.62c11.35,2.62,22.449,6.88,34.08,7.5
	c20.09,1.09,39.34-8.71,59.449-9.25c30.5-0.82,60.471,19.59,89.9,11.54c9.68-2.65,18.561-8.301,28.55-9.25
	c11.13-1,21.83,3.85,32.65,6.68c38.37,10,78.33-6.2,118-7.41c25.87-0.79,51.489,4.85,77.34,6.15c18.38,0.92,36.8-0.37,55.16-1.65
	c7-0.49,14.33-1.09,20.19-4.93c5.859-3.84,9.459-12.09,5.84-18.09L218.68,700.06z"/>
<path fill="#3F3D56" d="M218.68,695.06c13.54,8.6,33.05-0.1,46.68,8.37c3.52,2.18,6.36,5.39,10,7.37c4.37,2.39,9.51,2.819,14.48,3
	c41.62,1.609,83.94-10,124.521-0.62c11.35,2.62,22.449,6.88,34.08,7.5c20.09,1.09,39.34-8.71,59.449-9.25
	c30.5-0.82,60.471,19.59,89.9,11.54c9.68-2.65,18.561-8.301,28.55-9.25c11.13-1,21.83,3.85,32.65,6.68c38.37,10,78.33-6.2,118-7.41
	c25.87-0.79,51.489,4.85,77.34,6.15c18.38,0.92,36.8-0.37,55.16-1.65c7-0.49,14.33-1.09,20.19-4.93
	c5.859-3.84,9.459-12.09,5.84-18.09L218.68,695.06z"/>
<g opacity="0.1">
	<path fill="#3F3D56" d="M122.35,571.86c0.042,4.341-1.074,8.613-3.23,12.38c4.307,7.691,4.307,17.068,0,24.76
		c1.095,1.874,1.917,3.895,2.44,6c-10.916-14.388-20.964-29.414-30.09-45l0,0c0.22-3.717,1.302-7.332,3.16-10.56
		c-2.156-3.767-3.271-8.04-3.23-12.38c-0.013-2.933,0.481-5.846,1.46-8.61c0.466-1.312,1.059-2.573,1.77-3.77
		c2.82-4.79,7.26-7.88,12.24-7.88s9.43,3.09,12.25,7.88c0.686,1.161,1.265,2.384,1.73,3.649c1.003,2.801,1.51,5.756,1.5,8.73
		c0.042,4.34-1.074,8.613-3.23,12.38C121.283,563.219,122.398,567.507,122.35,571.86z"/>
	<ellipse fill="#3F3D56" cx="106.87" cy="522.35" rx="15.47" ry="20.26"/>
	<ellipse fill="#3F3D56" cx="106.87" cy="497.59" rx="15.47" ry="20.26"/>
	<path fill="#6C63FF" d="M180.67,373.93c0.026,16.628-5.566,32.778-15.87,45.83c25.31,32.181,19.739,78.785-12.442,104.095
		c-9.225,7.255-20.041,12.216-31.558,14.475c-1.78,0.36-3.59,0.641-5.42,0.86c-5.645,0.675-11.348,0.705-17,0.09
		c-1.88-0.2-3.736-0.477-5.57-0.83c-8.084-1.493-15.859-4.337-23-8.409C56.5,502.85,44.875,474.867,35,446.25
		c2.598-9.623,7.119-18.621,13.29-26.45c-15.498-19.688-20.012-45.868-12-69.609l56.28,18.89l-52.78-27.42
		c2.324-4.796,5.157-9.329,8.45-13.52c-25.317-32.175-19.758-78.781,12.417-104.098c32.175-25.317,78.78-19.758,104.098,12.417
		c2.176,2.766,4.153,5.684,5.915,8.73l-54.41,40l59-30.601c7.625,18.939,7.111,40.183-1.42,58.73l-44-0.33l40.66,6.68
		c-1.726,2.956-3.654,5.79-5.77,8.48C175.047,341.18,180.663,357.31,180.67,373.93z"/>
	<path opacity="0.1" enable-background="new    " d="M180.67,465.631c-0.006,35.422-25.065,65.895-59.82,72.739
		c-1.78,0.36-3.59,0.641-5.42,0.86c-5.645,0.675-11.348,0.705-17,0.09c-1.88-0.2-3.736-0.477-5.569-0.83
		c-8.084-1.494-15.859-4.336-23-8.41C56.532,502.879,44.89,474.883,35,446.25c2.598-9.623,7.119-18.621,13.29-26.45
		c-10.309-13.063-15.901-29.228-15.87-45.869c0-8.32,142.32,33.22,132.38,45.83C175.112,432.823,180.705,448.988,180.67,465.631z"/>
</g>
<g opacity="0.1">
	<path fill="#3F3D56" d="M1014.899,552.58c-2.899,9.26-6,18.45-9.18,27.431c-0.884-2.647-1.329-5.42-1.32-8.21
		C1004.399,562.87,1008.8,555.291,1014.899,552.58z"/>
	<path fill="#6C63FF" d="M1046,393.02c0,17.55-3.54,45.28-10,77c-5.658,27.858-12.717,55.413-21.149,82.56
		c-2.9,9.26-6,18.45-9.181,27.43c-3.649,10.201-7.5,20.121-11.53,29.61c-38.578-14.161-58.371-56.916-44.209-95.494
		c2.682-7.308,6.495-14.149,11.299-20.275c-15.5-19.745-20.011-45.971-12-69.761l56.28,18.931l-52.78-27.48
		c2.324-4.806,5.157-9.349,8.45-13.55c-25.358-32.332-19.704-79.099,12.628-104.457c5.052-3.962,10.596-7.254,16.492-9.793
		c22.717,15.498,39.816,37.922,48.75,63.93l-9.75,7.261l10.46-5.431c3.509,10.782,5.558,21.984,6.091,33.311h-2.94l3,0.489
		C1046,389.19,1046,391.09,1046,393.02z"/>
	<path opacity="0.1" enable-background="new    " d="M1036.05,470.02c-5.658,27.858-12.717,55.413-21.15,82.56
		c-2.899,9.26-6,18.45-9.18,27.431c-3.65,10.2-7.5,20.12-11.529,29.609c-38.578-14.161-58.372-56.916-44.21-95.494
		c2.683-7.308,6.495-14.149,11.3-20.275c-10.297-13.09-15.885-29.267-15.86-45.92C945.42,442.93,997.14,456.03,1036.05,470.02z"/>
</g>
<path opacity="0.1" fill="#6C63FF" enable-background="new    " d="M1045.87,387.28c0-0.15,0-0.31,0-0.47
	c-0.533-11.326-2.582-22.528-6.09-33.311c-0.2-0.609-0.4-1.229-0.61-1.83c-8.934-26.008-26.033-48.432-48.75-63.93
	c-52.677-35.89-123.809-27.097-166.16,20.54c-2.142-12.14-5.53-24.025-10.11-35.47c-33.366,4.218-67.041,5.473-100.629,3.75
	c20.582,9.49,41.924,17.241,63.8,23.17l-0.78,2.899c-24.551-6.666-48.428-15.604-71.32-26.699l-6.91-3.351l7.66,0.5
	c35.684,2.337,71.509,1.309,107-3.069c-7.679-18.314-18.328-35.235-31.52-50.08c-57.561-5.801-114.67-17.881-168-41.83l1.229-2.73
	c51.91,23.33,107.54,35.32,163.7,41.22c-67.721-72.595-181.471-76.547-254.065-8.825c-12.343,11.514-23.002,24.709-31.665,39.195
	c-5.319-51.582-26.746-100.18-61.239-138.899c-30.708,12.27-62.415,21.875-94.771,28.71c-48.659,10.342-98.457,14.306-148.14,11.79
	c20.583,9.49,41.924,17.241,63.8,23.17l-0.78,2.899c-24.544-6.667-48.414-15.605-71.3-26.699l-6.91-3.351l7.66,0.5
	c84.686,5.563,169.542-7.882,248.36-39.35c-2.967-3.247-6.021-6.42-9.16-9.521c-98.42,2-205.61,1-302.65-34.33
	C44.403,107.01-0.08,186.827,0,272.75C0,319.21,12.77,383.1,35,447.2c9.906,28.688,21.564,56.741,34.91,84
	c6.79,13.8,14,27.21,21.57,40.05l0,0c9.127,15.585,19.175,30.611,30.09,45c1.96,2.58,3.943,5.113,5.95,7.601
	c11.186,14.157,23.74,27.177,37.48,38.87l0,0c2.78,2.319,5.577,4.529,8.39,6.63c7.541,5.7,15.572,10.72,24,15
	c14.67,7.35,29.81,11.659,45.3,12.28c1.24,0.05,2.49,0.08,3.73,0.08v0.51h672v-0.51h0.5c3.873-0.016,7.715-0.691,11.36-2
	c23.76-8.431,45.64-42.28,63.83-85.061c4-9.49,7.88-19.41,11.529-29.609c3.221-9,6.28-18.17,9.181-27.431
	c8.433-27.147,15.491-54.702,21.149-82.56c6.41-31.721,10-59.45,10-77C1046,391.09,1046,389.19,1045.87,387.28z"/>
<path fill="#6C63FF" d="M334.06,667.791L353.2,656.53c-2.591-4.42-5.899-8.377-9.79-11.71l-36.11,11.23l28.301-16.631
	c-22.281-12.205-50.238-4.037-62.444,18.244c-3.712,6.776-5.657,14.379-5.656,22.106c0,25.399,20.59,26.28,46,26.28
	s46-0.881,46-26.28c0.009-6.432-1.337-12.793-3.95-18.67L334.06,667.791z"/>
<path opacity="0.1" enable-background="new    " d="M338.93,692.48c-2.037-2.04-4.313-3.826-6.78-5.32
	c-3.479-2.31-7.069-4.67-11.17-5.449c-3.6-0.69-7.31-0.11-11-0.32c-6.365-0.389-12.357-3.134-16.81-7.7c-2.61-2.7-4.67-6-7.81-8.09
	c-3.39-2.22-7.69-2.7-11.71-2.15c-1.167,0.167-2.322,0.403-3.46,0.71c-1.806,5.006-2.726,10.288-2.72,15.61
	c0,25.399,20.59,26.28,46,26.28c12.33,0,23.521-0.211,31.78-3.32l-1.38-2.58C342.552,697.396,340.892,694.82,338.93,692.48z"/>
<circle fill="#3F3D56" cx="547.34" cy="185.77" r="35.75"/>
<path fill="#3F3D56" d="M526.601,463.87c3.689,25.891-0.811,52.29-7.82,77.48c-1.311,4.69-2.721,9.42-5.17,13.63
	c-2.45,4.21-5.86,7.83-8.74,11.79c-6,8.26-9.52,18-12.811,27.64c-9.07,26.675-16.688,53.821-22.819,81.32
	c-0.37,1.127-0.37,2.343,0,3.47c0.87,2,3.51,2.261,5.68,2.25l28.06-0.149c1-1.92-0.85-4-2-5.84c-4-6.221-0.159-14.301,3.371-20.811
	c8.578-15.811,15.22-32.599,19.779-50c1.92-7.33,3.48-14.82,6.6-21.73c3.771-8.38,9.681-15.59,14.48-23.43
	c5.58-9.109,9.65-19,13.689-28.93c5.641-13.78,11.33-27.73,13.551-42.45c2.09-13.82,1.06-27.899-0.301-41.81
	c0.221-1.441-0.77-2.789-2.211-3.009c-0.281-0.043-0.568-0.04-0.849,0.009l-37.649-1.94c-7.761-0.399-9.601-2.101-8.42,5.521
	C523.84,452.57,525.78,458.11,526.601,463.87z"/>
<path opacity="0.1" enable-background="new    " d="M526.601,463.87c3.689,25.891-0.811,52.29-7.82,77.48
	c-1.311,4.69-2.721,9.42-5.17,13.63c-2.45,4.21-5.86,7.83-8.74,11.79c-6,8.26-9.52,18-12.811,27.64
	c-9.07,26.675-16.688,53.821-22.819,81.32c-0.37,1.127-0.37,2.343,0,3.47c0.87,2,3.51,2.261,5.68,2.25l28.06-0.149
	c1-1.92-0.85-4-2-5.84c-4-6.221-0.159-14.301,3.371-20.811c8.578-15.811,15.22-32.599,19.779-50c1.92-7.33,3.48-14.82,6.6-21.73
	c3.771-8.38,9.681-15.59,14.48-23.43c5.58-9.109,9.65-19,13.689-28.93c5.641-13.78,11.33-27.73,13.551-42.45
	c2.09-13.82,1.06-27.899-0.301-41.81c0.221-1.441-0.77-2.789-2.211-3.009c-0.281-0.043-0.568-0.04-0.849,0.009l-37.649-1.94
	c-7.761-0.399-9.601-2.101-8.42,5.521C523.84,452.57,525.78,458.11,526.601,463.87z"/>
<path fill="#3F3D56" d="M534,400.93c-7.649,11-15.67,23.659-13.13,36.83c1.93,10,9.55,17.75,16.74,25
	c28.74,28.859,57,60.92,66.779,100.47c2.521,10.22,3.74,20.71,5.91,31c3.94,18.7,11,36.58,18,54.35l18.76,47.351
	c11.92,0.292,22.748-6.9,27.101-18c-2.46-0.19-5.67-2.57-7.11-4.57c-8-11.069-9.64-25.31-11.689-38.81
	c-2.271-14.92-5.301-29.721-8.34-44.51l-13.44-65.44c-1.55-7.55-3.101-15.11-5.12-22.55c-7.82-28.82-22.641-56-24.93-85.801
	c-0.34-4.38-0.551-9.189-3.521-12.439c-3.12-3.431-8.239-4-12.87-4.271C568.41,398.34,552.25,396.51,534,400.93z"/>
<path fill="#F2F2F2" d="M483.47,675.06c-2.039-0.484-4.124-0.752-6.22-0.8c-4.072,0.144-7.838,2.201-10.16,5.55
	c-1.168,1.872-2.086,3.889-2.729,6l-2.711,7.779c-0.799,2.281-1.579,4.91-0.39,7c0.886,1.299,2.16,2.283,3.64,2.811
	c6.561,2.92,14,3.08,21.101,3.78c6.94,0.68,13.82,1.899,20.67,3.18c2.36,0.45,4.71,0.9,7.101,1.14c5.34,0.541,10.72,0,16.06-0.479
	l5.51-0.53c1.845-0.079,3.669-0.416,5.42-1c1.769-0.6,3.214-1.896,4-3.59c1.36-3.37-1.56-7.359-5.13-8.061
	c-1.45-0.279-3-0.149-4.42-0.34c-1.666-0.285-3.291-0.771-4.84-1.449c-7-2.771-14.17-5.57-20.37-9.931
	c-1.72-1.21-3.521-2.899-3.33-5c0.179-0.899,0.478-1.771,0.89-2.59c0.841-2.146,0.869-4.524,0.08-6.69c-0.34-0.92-1-1.89-1.93-2
	c-2.641-0.319-2.32,3.53-2.71,5c-0.53,2-1.49,2.181-3.37,2C494.229,676.35,488.83,676.08,483.47,675.06z"/>
<path fill="#F2F2F2" d="M641.34,701.93c0.048,3.907,1.392,7.688,3.82,10.75c0.742,0.913,1.669,1.659,2.72,2.189
	c1.582,0.651,3.295,0.923,5,0.79c4.76-0.104,9.464-1.055,13.891-2.81c1.559-0.706,3.162-1.312,4.8-1.81
	c2.061-0.422,4.144-0.723,6.239-0.9c8.271-1.19,15.53-6.07,23.521-8.54c2.388-0.592,4.728-1.36,7-2.3c3.16-1.49,5.72-4,8.229-6.431
	c1.48-1.312,2.755-2.839,3.78-4.53c1.47-2.729,1.56-6,1.62-9.09c0.054-0.482-0.029-0.972-0.24-1.41
	c-0.229-0.314-0.539-0.561-0.899-0.709c-2.431-1.2-5.311-0.601-8-0.131c-9.72,1.73-19.671,1.41-29.54,1.09
	c-1.926,0.266-3.788-0.797-4.54-2.59l-3.75-6c-1.07-1.72-2.771-3.689-4.71-3.1c-1.551,0.47-2.18,2.37-2.12,4s0.56,3.25,0.25,4.84
	c-0.447,1.77-1.604,3.274-3.2,4.16c-1.575,0.856-3.256,1.502-5,1.92c-5.52,1.561-11.939,3.33-16.21,7.391
	C640.86,691.59,641.149,698.041,641.34,701.93z"/>
<path fill="#FBBEBE" d="M639.399,305.19c2.154-1.646,4.002-3.656,5.461-5.94c1.256-2.577,2.045-5.356,2.33-8.21l1.569-9.92
	c0.87-5.47,1.891-11.26,5.54-15.43c3.65-4.17,10.92-5.66,14.631-1.54c1.619,1.79,2.26,4.25,2.659,6.64
	c2.312,14.435-2.034,29.14-11.819,40c-4.49,4.92-10,8.83-14.75,13.48c-4.141,4-7.73,8.59-11.551,12.939
	c-9.237,10.508-19.818,19.754-31.47,27.5c0.14-7.439,1.09-15.42,0-22.81c-0.81-5.34-3-8.22,2.17-11.71
	C616.17,322.03,628.28,314.65,639.399,305.19z"/>
<path fill="#FBBEBE" d="M538.56,232.01c-0.39,5.319-2.6,10.76-7,13.829c12.461,4.36,24.75,9.167,36.87,14.421
	c-2.34-2.25-3.05-5.7-3.159-8.94c-0.311-8.47,2.619-16.8,6.899-24.1c0.681-0.927,1.074-2.032,1.13-3.181
	c-0.14-2.359-2.939-3.45-5.24-4c-7.847-1.903-15.855-3.065-23.92-3.47c-3.449-0.11-7.539-1.2-6.76,3.19
	C538.12,223.86,538.87,227.86,538.56,232.01z"/>
<circle fill="#FBBEBE" cx="562.66" cy="205.63" r="29.23"/>
<path fill="#FF6F61" d="M591.601,284.58c-1.021-2.194-2.265-4.279-3.711-6.22c-5.3-7.61-10.74-15.21-17.539-21.51
	c-5.151-4.594-10.727-8.689-16.65-12.23c-3.197-2.191-6.711-3.877-10.42-5c-2.201-0.487-4.439-0.792-6.69-0.91l-7.59-0.62
	c-0.665-0.088-1.341-0.067-2,0.061c-2.06,0.52-3,3.08-2.56,5.149c0.439,2.07,2,3.75,3.379,5.32
	c0.341,15.49-6.549,30.771-7.479,46.24c-1.63,27.05,14.88,52.21,16.2,79.28c0.136,1.223,0.006,2.461-0.38,3.63
	c-0.22,0.56-0.55,1.069-0.8,1.62c-0.78,1.699-0.75,3.63-0.891,5.5c-0.545,6.669-3.465,12.921-8.229,17.619
	c1.238,1.538,2.83,2.752,4.64,3.54c3.19,1.391,7,1.511,10.391,2.48c8.84,2.58,17.899,5.18,27.09,4.63
	c1.142-2.484,1.849-5.146,2.09-7.87c1.3-0.81,2.8,0.92,3,2.44c0.2,1.52-0.09,3.29,1,4.39c1.09,1.101,2.47,0.93,3.8,0.76
	c5.61-0.71,11-2.6,16.5-3.869c5.5-1.271,11.38-1.881,16.729-0.061c1.08-1.37,0.621-3.399-0.26-4.899c-0.88-1.5-2.13-2.82-2.63-4.49
	c-0.251-0.962-0.359-1.956-0.319-2.95c0-8.55,1.76-17.19,0.09-25.58c-0.49-2.46-1.271-4.86-1.771-7.33
	c-1-4.79-0.85-9.729-0.72-14.62c0.13-4.89-0.46-10.18-0.561-15.14c-0.003-2.05-0.137-4.098-0.399-6.13c-0.34-2.13-1-4.21-1.181-6.36
	c-0.539-5.46,1.66-10.88,1.33-16.36C604.51,296.77,594.84,292.25,591.601,284.58z"/>
<path fill="#FBBEBE" d="M525.63,280.66c-7.08,18.78-10.54,38.7-14,58.48l-8,46.46c-2.27,13.13-4.55,26.34-4.46,39.66
	c0,3.739,0.24,7.55-0.74,11.159c-1.28,4.74-4.46,8.69-6.87,13c-4.89,8.802-6.519,19.047-4.6,28.931c0.82,4.149,3.061,8.86,7.27,9.34
	c3.461,0.38,6.451-2.37,8.471-5.21c4.64-6.51,6.939-14.37,9-22.11c6.631-25.294,11.27-51.07,13.87-77.09
	c0.247-3.294,0.711-6.567,1.39-9.8c0.883-3.333,2.013-6.595,3.38-9.76c3.061-7.587,6.124-15.174,9.19-22.761
	c7.07-17.529,14.18-35.14,23.89-51.359c-9.6-2.761-19.59-6-29.19-8.73C531.46,280.05,528.49,280.54,525.63,280.66z"/>
<path fill="#FF6F61" d="M542.271,294.93c-6.721-1.45-13.67-1-20.53-1.17c-0.975,0.07-1.944-0.183-2.761-0.721
	c-1.39-1.189-0.8-3.42-0.1-5.109l3.32-8c0.545-1.654,1.453-3.165,2.66-4.42c1.689-1.5,4.069-1.87,6.31-2.141
	c7.29-0.84,14.79-1.12,21.86,0.851c7.07,1.97,13.72,6.449,16.88,13.079c1.319,2.761,1.93,6.24,0.18,8.75
	c-2.6,3.73-8.43,7.9-12.78,5.86C552.101,299.44,548.11,296.17,542.271,294.93z"/>
<path fill="#3F3D56" d="M578,160.23c-5.776-0.063-11.443,1.572-16.3,4.7c-9.361-8.871-22.773-12.012-35.1-8.221
	c-1.938-11.115-12.52-18.556-23.635-16.619c-11.115,1.938-18.557,12.519-16.619,23.635c1.482,8.503,8.147,15.157,16.653,16.625
	c-5.548,18.948,5.316,38.807,24.265,44.354c18.949,5.548,38.808-5.315,44.355-24.265c2.109,0.432,4.257,0.649,6.41,0.649
	c14.1,0,25.539-9.149,25.539-20.43S592.08,160.23,578,160.23z"/>
<path opacity="0.1" enable-background="new    " d="M583.09,190.87c-2.153,0.006-4.302-0.212-6.409-0.649
	c-1.002,3.657-2.582,7.131-4.681,10.29c1.978,0.381,3.986,0.575,6,0.579c13.18,0,24-8,25.39-18.239
	C598.7,187.73,591.351,190.87,583.09,190.87z"/>
<path opacity="0.1" enable-background="new    " d="M542.229,216.41c-19.771-0.028-35.776-16.08-35.748-35.852
	c0.006-3.534,0.534-7.049,1.568-10.429c-9.767-1.718-16.89-10.202-16.89-20.119c-0.002-1.228,0.108-2.453,0.33-3.66
	c-7.665,8.28-7.165,21.206,1.115,28.87c2.883,2.669,6.475,4.45,10.345,5.13c-5.752,18.888,4.898,38.861,23.786,44.613
	c18.75,5.709,38.601-4.744,44.504-23.434C564.534,210.877,553.733,216.417,542.229,216.41z"/>
<path fill="#3A3768" d="M672.566,276.214L672.566,276.214c0.15,0.107,0.185,0.318,0.075,0.471l-2.822,3.956
	c-0.109,0.153-0.32,0.19-0.471,0.083l0,0c-0.15-0.107-0.185-0.319-0.075-0.472l2.823-3.956
	C672.205,276.142,672.416,276.106,672.566,276.214z"/>
<path fill="#3A3768" d="M656.794,259.62L656.794,259.62c0.085,0.062,0.104,0.18,0.044,0.266l-0.837,1.172
	c-0.061,0.085-0.18,0.105-0.265,0.044l0,0c-0.086-0.061-0.105-0.18-0.044-0.265l0.836-1.172
	C656.589,259.579,656.708,259.559,656.794,259.62z"/>
<path fill="#3A3768" d="M654.847,262.353L654.847,262.353c0.094,0.067,0.116,0.198,0.049,0.293l-1.598,2.238
	c-0.067,0.095-0.198,0.116-0.293,0.049l0,0c-0.094-0.067-0.116-0.198-0.049-0.293l1.598-2.238
	C654.621,262.307,654.752,262.286,654.847,262.353z"/>
<path fill="#3A3768" d="M652.368,265.84L652.368,265.84c0.09,0.064,0.11,0.189,0.047,0.279l-1.627,2.279
	c-0.064,0.09-0.189,0.11-0.279,0.046l0,0c-0.09-0.063-0.11-0.188-0.046-0.278l1.626-2.279
	C652.153,265.797,652.278,265.775,652.368,265.84z"/>
<path fill="#3A3768" d="M663.292,258.062l14.196,10.13c1.133,0.809,1.396,2.383,0.588,3.516l-23.611,33.09
	c-0.809,1.133-2.382,1.396-3.515,0.587l-14.197-10.13c-1.133-0.809-1.396-2.382-0.587-3.515l23.611-33.09
	C660.585,257.517,662.159,257.254,663.292,258.062z"/>
<path opacity="0.1" enable-background="new    " d="M663.292,258.062l14.196,10.13c1.133,0.809,1.396,2.383,0.588,3.516
	l-23.611,33.09c-0.809,1.133-2.382,1.396-3.515,0.587l-14.197-10.13c-1.133-0.809-1.396-2.382-0.587-3.515l23.611-33.09
	C660.585,257.517,662.159,257.254,663.292,258.062z"/>
<path fill="#3A3768" d="M662.365,256.198l14.196,10.13c1.133,0.809,1.396,2.383,0.588,3.516l-23.611,33.089
	c-0.809,1.134-2.382,1.396-3.516,0.588l-14.195-10.13c-1.133-0.809-1.396-2.382-0.588-3.515l23.611-33.09
	C659.659,255.653,661.232,255.389,662.365,256.198z"/>
<path fill="#6C63FF" d="M675.28,266.93l-2.09-1.5l-0.181,0.25c-0.463,0.637-1.348,0.791-2,0.35l-6.68-4.77
	c-0.659-0.473-0.812-1.391-0.34-2.051l0.18-0.25l-2-1.399c-0.798-0.575-1.91-0.395-2.485,0.402
	c-0.001,0.003-0.003,0.005-0.005,0.008l-23.079,32.35c-0.572,0.802-0.389,1.914,0.409,2.49l13.14,9.37
	c0.8,0.572,1.912,0.388,2.484-0.411c0.002-0.003,0.004-0.006,0.006-0.009l23.08-32.341c0.567-0.803,0.377-1.913-0.427-2.48
	C675.289,266.936,675.284,266.933,675.28,266.93z"/>
<path fill="#E6E8EC" d="M667.16,261.308l2.035,1.452c0.144,0.103,0.177,0.303,0.074,0.446l0,0c-0.103,0.145-0.302,0.178-0.446,0.075
	l-2.035-1.452c-0.144-0.103-0.177-0.303-0.074-0.446l0,0C666.816,261.239,667.017,261.206,667.16,261.308z"/>
<circle fill="#E6E8EC" cx="669.899" cy="263.72" r="0.36"/>
</svg>
