<?xml version="1.0" encoding="utf-8"?>
<!-- Generator: Adobe Illustrator 16.0.0, SVG Export Plug-In . SVG Version: 6.00 Build 0)  -->
<!DOCTYPE svg PUBLIC "-//W3C//DTD SVG 1.1//EN" "http://www.w3.org/Graphics/SVG/1.1/DTD/svg11.dtd">
<svg version="1.1" id="a7e92c1a-e25c-441e-bda8-8af90c7203b5"
	 xmlns="http://www.w3.org/2000/svg" xmlns:xlink="http://www.w3.org/1999/xlink" x="0px" y="0px" width="996.611px" height="804px"
	 viewBox="0 0 996.611 804" enable-background="new 0 0 996.611 804" xml:space="preserve">
<title>settings</title>
<path fill="#F2F2F2" d="M467.223,8.979c-50.937,13.232-95.866,48.56-140.523,94.905c31.103,28.35,33.335,76.545,4.985,107.648
	c-27.369,30.028-73.485,33.301-104.821,7.438C174.407,281.636,117.13,347.883,47.223,402.635
	c-177.995,139.408,188.04,393.656,420,393.656s420-176.246,420-393.656S690.755-49.09,467.223,8.979z"/>
<ellipse fill="#3F3D56" cx="532.611" cy="773.5" rx="464" ry="30.5"/>
<ellipse opacity="0.1" enable-background="new    " cx="545.611" cy="771" rx="160" ry="17"/>
<path fill="#6C63FF" d="M937.352,739.506c0,29.271-17.399,39.491-38.865,39.491c-0.497,0-0.995-0.007-1.488-0.018
	c-0.995-0.021-1.981-0.067-2.955-0.136c-19.373-1.37-34.422-12.116-34.422-39.338c0-28.166,35.993-63.712,38.704-66.348l0.004-0.004
	c0.104-0.104,0.157-0.154,0.157-0.154S937.352,710.238,937.352,739.506z"/>
<path fill="#3F3D56" d="M897.069,774.518l14.216-19.86l-14.251,22.043l-0.036,2.278c-0.995-0.021-1.981-0.068-2.955-0.136
	l1.531-29.282l-0.011-0.229l0.025-0.039l0.146-2.769l-14.287-22.096l14.33,20.021l0.035,0.587l1.156-22.124l-12.23-22.833
	l12.381,18.952l1.205-45.873l0.004-0.158v0.154l-0.201,36.172l12.177-14.341l-12.227,17.456l-0.321,19.811l11.371-19.013
	l-11.418,21.928l-0.179,11.014l16.501-26.463l-16.565,30.305L897.069,774.518z"/>
<circle fill="#2F2E41" cx="476.793" cy="192.764" r="47.763"/>
<polygon fill="#A0616A" points="586.729,614.807 612.259,717.744 637.787,713.627 612.259,595.866 "/>
<path fill="#2F2E41" d="M621.317,711.156c0,0-14.539,4.915-12.622,8.223c1.916,3.307,1.916,23.894-4.672,31.305
	c-6.588,7.412-23.058,30.47-4.117,31.293c18.94,0.824,37.881-11.528,37.881-11.528v-21.411l3.294,19.764h3.294v-22.234
	c0,0,8.235-13.999,3.294-22.234c-4.941-8.234-8.162-15.411-14.375-14.705S621.317,711.156,621.317,711.156z"/>
<polygon fill="#A0616A" points="486.263,702.097 482.146,724.332 510.968,724.332 510.968,702.097 "/>
<path fill="#2F2E41" d="M488.733,719.39c0,0-8.234-0.823-10.705,10.706c-2.471,11.528-24.705,27.999-32.939,30.47
	c-8.235,2.471-8.235,10.705,2.471,12.352c10.705,1.647,37.881,2.471,44.469-6.588c4.473-5.908,9.737-11.174,15.646-15.646
	l-4.118,23.059h7.412c0,0,6.588-22.234,13.176-29.646c6.588-7.411-13.176-24.705-16.47-24.705H488.733z"/>
<path fill="#A0616A" d="M448.383,365.287c0,0-5.765,15.646-15.646,18.117s-83.173,19.764-83.173,19.764s-64.233,1.647-44.47,15.646
	c19.765,14,51.881,0,51.881,0s93.878-11.529,101.29-23.881c4.879-8.407,9.012-17.225,12.353-26.353L448.383,365.287z"/>
<path fill="#2F2E41" d="M479.676,296.113c0,0-46.939,76.585-41.175,78.232c5.764,1.646,59.291,18.94,61.762,12.353
	s2.471-37.058,2.471-37.058L479.676,296.113z"/>
<path opacity="0.1" enable-background="new    " d="M479.676,296.113c0,0-46.939,76.585-41.175,78.232
	c5.764,1.646,59.291,18.94,61.762,12.353s2.471-37.058,2.471-37.058L479.676,296.113z"/>
<path fill="#A0616A" d="M601.554,277.996l106.23,54.352c0,0,60.115,15.646,46.939,27.999
	c-13.176,12.352-55.998-10.706-55.998-10.706l-117.76-53.527L601.554,277.996z"/>
<path fill="#A0616A" d="M465.676,235.175c0,0,20.588,31.293,18.94,38.704c0,0,1.647,4.941-0.823,8.235s-1.647,23.058-1.647,23.058
	l8.235,11.529l10.706-35.41l4.94-37.881c0,0-11.117-15.235-9.47-22.646C498.204,213.351,465.676,235.175,465.676,235.175z"/>
<path fill="#2F2E41" d="M530.732,413.05c0,0-46.116,123.524-46.116,177.876c0,54.351-17.293,116.113-4.117,121.877
	c13.176,5.765,79.879,6.588,81.526,0s-8.235-274.225-13.177-284.93C543.908,417.168,530.732,413.05,530.732,413.05z"/>
<path opacity="0.1" enable-background="new    " d="M530.732,413.05c0,0-46.116,123.524-46.116,177.876
	c0,54.351-17.293,116.113-4.117,121.877c13.176,5.765,79.879,6.588,81.526,0s-8.235-274.225-13.177-284.93
	C543.908,417.168,530.732,413.05,530.732,413.05z"/>
<circle fill="#A0616A" cx="476.382" cy="209.646" r="30.469"/>
<path fill="#2F2E41" d="M485.44,301.878l-2.205-18.584c0,0-6.854,9.525-6.854,16.937c0,7.412-4.117,33.764,13.176,50.233
	c17.293,16.471,20.588,19.765,21.411,23.059s4.94,3.294,4.94,3.294l23.882,96.35c0,0,7.411,256.107,18.94,259.401
	s46.939,0,49.41-4.118c2.47-4.117-4.118-113.643-4.118-113.643s18.117,97.173,24.705,97.173s10.705-13.999,9.059-14.823
	c-1.647-0.823-11.529-64.232-15.646-83.996c-4.118-19.764-2.471-186.934-2.471-186.934s13.176-21.411-32.116-63.41
	c0,0-28.822-83.996-30.47-83.996s-33.763-45.293-33.763-45.293s-18.117,0-21.411,10.706
	C498.616,254.938,485.44,301.878,485.44,301.878z"/>
<path fill="#2F2E41" d="M513.438,240.115l9.883-6.588c0,0,41.175,24.705,69.997,26.353c28.822,1.646,27.999,18.116,16.47,29.646
	s-56.821,51.057-58.469,41.175C549.673,320.818,513.438,240.115,513.438,240.115z"/>
<ellipse fill="#2F2E41" cx="476.793" cy="179.588" rx="32.94" ry="19.764"/>
<circle fill="#2F2E41" cx="480.087" cy="145.002" r="19.764"/>
<path fill="#2F2E41" d="M453.735,134.296c0-10.118,7.643-18.602,17.705-19.656c-0.684-0.071-1.371-0.107-2.059-0.107
	c-10.916,0.011-19.756,8.868-19.745,19.783c0.011,10.9,8.845,19.734,19.745,19.745c0.688-0.001,1.375-0.036,2.059-0.107
	C461.378,152.898,453.735,144.414,453.735,134.296z"/>
<rect x="328.372" y="376.588" transform="matrix(-0.9861 0.1659 -0.1659 -0.9861 1174.4602 912.9221)" fill="#3F3D56" width="441.479" height="257.824"/>
<path opacity="0.3" fill="#6C63FF" enable-background="new    " d="M683.919,425.582l-289.133,48.097
	c-3.24,0.541-6.305-1.646-6.846-4.886c-0.541-3.24,1.647-6.305,4.887-6.846c0.002,0,0.005-0.001,0.008-0.001l289.132-48.098
	c3.241-0.533,6.301,1.662,6.834,4.902C689.333,421.984,687.149,425.039,683.919,425.582L683.919,425.582z"/>
<path opacity="0.3" fill="#6C63FF" enable-background="new    " d="M694.653,490.113L405.521,538.21
	c-3.239,0.541-6.304-1.647-6.845-4.887s1.646-6.304,4.886-6.845c0.003-0.001,0.006-0.001,0.008-0.002l289.133-48.097
	c3.24-0.533,6.301,1.661,6.834,4.902C700.067,486.515,697.885,489.57,694.653,490.113z"/>
<path opacity="0.3" fill="#6C63FF" enable-background="new    " d="M705.388,554.644l-289.132,48.097
	c-3.24,0.538-6.304-1.651-6.843-4.891c-0.539-3.24,1.65-6.304,4.891-6.843l289.133-48.097c3.239-0.545,6.307,1.64,6.851,4.879
	c0.545,3.239-1.64,6.306-4.879,6.851C705.401,554.641,705.396,554.642,705.388,554.644z"/>
<circle fill="#FF6584" cx="275.37" cy="160.201" r="54.315"/>
</svg>
